<?xml version="1.0" encoding="UTF-8" standalone="no"?>
<!-- Created with Inkscape (http://www.inkscape.org/) -->

<svg
   width="512"
   height="512"
   viewBox="0 0 135.46666 135.46667"
   version="1.1"
   id="svg5"
   inkscape:version="1.2.1 (9c6d41e410, 2022-07-14)"
   sodipodi:docname="logo.svg"
   inkscape:export-filename="..\..\..\..\Users\mhive\Downloads\logo.png"
   inkscape:export-xdpi="96"
   inkscape:export-ydpi="96"
   xmlns:inkscape="http://www.inkscape.org/namespaces/inkscape"
   xmlns:sodipodi="http://sodipodi.sourceforge.net/DTD/sodipodi-0.dtd"
   xmlns="http://www.w3.org/2000/svg"
   xmlns:svg="http://www.w3.org/2000/svg">
  <sodipodi:namedview
     id="namedview7"
     pagecolor="#505050"
     bordercolor="#ffffff"
     borderopacity="1"
     inkscape:showpageshadow="0"
     inkscape:pageopacity="0"
     inkscape:pagecheckerboard="1"
     inkscape:deskcolor="#505050"
     inkscape:document-units="mm"
     showgrid="false"
     inkscape:zoom="2.587745"
     inkscape:cx="267.02786"
     inkscape:cy="166.16784"
     inkscape:window-width="3840"
     inkscape:window-height="2054"
     inkscape:window-x="2869"
     inkscape:window-y="-11"
     inkscape:window-maximized="1"
     inkscape:current-layer="layer1" />
  <defs
     id="defs2">
    <rect
       x="78.696609"
       y="48.092373"
       width="850.3606"
       height="525.73706"
       id="rect236" />
  </defs>
  <g
     inkscape:label="Layer 1"
     inkscape:groupmode="layer"
     id="layer1">
    <g
       transform="scale(0.26458333)"
       id="text234"
       style="font-size:192px;font-family:'Playfair Display';-inkscape-font-specification:'Playfair Display';white-space:pre;shape-inside:url(#rect236);fill:#eeeeee;stroke-width:0;stop-color:#000000" />
    <g
       aria-label="SR"
       id="text242"
       style="font-size:101.6px;font-family:'Playfair Display';-inkscape-font-specification:'Playfair Display';fill:#eeeeee;stroke-width:0;stop-color:#000000">
      <path
         id="path246"
         d="M 32.228524 30.496847 C 28.909594 30.496847 25.793821 31.140546 22.881291 32.427478 C 19.96876 33.646677 17.597861 35.576742 15.769063 38.218339 C 14.007998 40.792203 13.127364 44.077289 13.127364 48.073551 C 13.127364 51.866614 13.940377 55.118148 15.565975 57.827478 C 17.259307 60.469075 19.494445 62.805905 22.271509 64.837903 C 25.048573 66.869901 28.029102 68.868104 31.212565 70.832369 C 34.396029 72.7289 37.172658 74.591343 39.543323 76.420142 C 41.913987 78.181207 43.742878 80.111788 45.02981 82.211519 C 46.384475 84.243517 47.061727 86.647969 47.061727 89.425033 C 47.061727 92.608496 46.418544 95.21633 45.131612 97.248328 C 43.84468 99.21259 42.185103 100.66879 40.153105 101.61705 C 38.18884 102.49759 36.088945 102.9379 33.853748 102.9379 C 29.518819 102.9379 26.030867 101.88795 23.38927 99.788224 C 20.815406 97.62076 18.884824 94.775991 17.597892 91.253861 C 16.378693 87.731732 15.63382 83.938707 15.362887 79.874711 L 13.026078 79.874711 C 13.026078 84.61604 12.992009 88.544308 12.924276 91.660038 C 12.924276 94.775768 12.890206 97.31598 12.822473 99.280245 C 12.822473 101.17677 12.754851 102.83635 12.619385 104.25875 L 14.956193 104.25875 C 15.159393 102.76862 15.396844 101.65105 15.667778 100.90599 C 16.006444 100.16092 16.514383 99.788224 17.191715 99.788224 C 18.004515 99.788224 19.155636 100.2621 20.645768 101.21036 C 22.1359 102.09089 23.931238 102.93797 26.030969 103.75077 C 28.1307 104.56357 30.975469 104.96982 34.565332 104.96982 C 38.493861 104.96982 42.083504 104.2585 45.334701 102.8361 C 48.585897 101.4137 51.193731 99.280253 53.157996 96.435457 C 55.12226 93.59066 56.104069 90.000501 56.104069 85.665572 C 56.104069 82.007976 55.291573 78.892203 53.665975 76.318339 C 52.10811 73.744475 49.940593 71.407645 47.163529 69.307914 C 44.454199 67.14045 41.338426 64.97345 37.816296 62.805986 C 34.768299 60.909454 31.923531 59.148185 29.281934 57.522587 C 26.70807 55.829255 24.642244 53.966295 23.084379 51.934298 C 21.526514 49.834566 20.747571 47.260802 20.747571 44.212805 C 20.747571 40.690675 21.899209 37.845907 24.20214 35.678442 C 26.572805 33.510978 29.552817 32.427478 33.14268 32.427478 C 36.935743 32.427478 39.983894 33.375734 42.286825 35.272266 C 44.657489 37.168797 46.45231 39.607318 47.671509 42.587581 C 48.890708 45.567845 49.602029 48.683101 49.805229 51.934298 L 52.142037 51.934298 L 52.142037 41.672909 C 52.20977 39.031311 52.277392 36.931417 52.345125 35.373551 C 52.480592 33.747953 52.582283 32.35938 52.650016 31.207914 L 50.313208 31.207914 C 50.110008 32.698046 49.839004 33.815615 49.500338 34.560681 C 49.229405 35.305747 48.755018 35.678442 48.077686 35.678442 C 47.603553 35.678442 47.095614 35.576751 46.553748 35.373551 C 46.079615 35.102618 45.436432 34.73044 44.623633 34.256307 C 43.268968 33.308041 41.711081 32.460959 39.950016 31.715894 C 38.188951 30.903094 35.615187 30.496847 32.228524 30.496847 z M 65.350016 31.614608 L 65.350016 33.646525 C 67.652947 33.714258 69.380147 33.985262 70.531612 34.459395 C 71.750811 34.865795 72.563823 35.678291 72.970223 36.897489 C 73.376623 38.048955 73.579488 39.877845 73.579488 42.383976 L 73.579488 92.777799 C 73.579488 95.216197 73.376623 97.045088 72.970223 98.264286 C 72.563823 99.483483 71.750811 100.29598 70.531612 100.70238 C 69.380147 101.10878 67.652947 101.37978 65.350016 101.51525 L 65.350016 103.54717 C 66.772415 103.4117 68.634858 103.34408 70.937789 103.34408 C 73.24072 103.27635 75.71331 103.24228 78.354907 103.24228 C 80.725572 103.24228 83.062401 103.27635 85.365332 103.34408 C 87.735996 103.34408 89.70013 103.4117 91.257996 103.54717 L 91.257996 101.51525 C 88.955065 101.37978 87.193796 101.10878 85.974597 100.70238 C 84.823132 100.29598 84.044188 99.483483 83.637789 98.264286 C 83.231389 97.045088 83.028524 95.216197 83.028524 92.777799 L 83.028524 69.409717 L 90.851819 69.409717 L 92.680648 69.409717 C 95.389978 69.409717 97.421734 70.019347 98.7764 71.238546 C 100.1988 72.457745 101.2823 74.150875 102.02736 76.318339 C 102.84016 78.41807 103.55148 80.924213 104.16108 83.836743 L 106.39661 93.996847 C 107.34487 98.331774 108.767 101.24417 110.66353 102.7343 C 112.56006 104.22443 114.76165 104.96982 117.26778 104.96982 C 120.04484 104.96982 122.17829 104.42781 123.66842 103.34408 C 125.22629 102.19261 126.71655 100.5671 128.13895 98.467375 L 126.61501 97.349613 C 125.73448 98.501079 124.8874 99.415785 124.0746 100.09312 C 123.32953 100.77045 122.38128 101.14263 121.22981 101.21036 C 119.73968 101.27809 118.62211 100.66846 117.87704 99.381531 C 117.19971 98.026865 116.52246 95.859349 115.84513 92.879085 L 113.30523 82.515894 C 112.35696 78.316431 110.8667 75.234728 108.8347 73.270463 C 106.87044 71.238465 103.61942 69.849892 99.081291 69.104826 C 98.729355 69.04617 98.370162 68.99144 98.006938 68.938428 C 100.22471 68.616746 102.20902 68.130664 103.958 67.479085 C 107.41239 66.12442 110.12192 64.43129 112.08618 62.399292 C 114.11818 60.367294 115.54031 58.199778 116.3531 55.896847 C 117.1659 53.593916 117.57215 51.426399 117.57215 49.394401 C 117.57215 46.075471 116.65796 43.095459 114.82917 40.453861 C 113.0681 37.744531 110.35858 35.610567 106.70098 34.052702 C 103.11112 32.494837 98.573216 31.715894 93.086825 31.715894 C 91.867626 31.715894 89.8018 31.749963 86.88927 31.817696 C 83.97674 31.885429 80.928589 31.919499 77.745125 31.919499 C 75.509928 31.919499 73.24072 31.885429 70.937789 31.817696 C 68.634858 31.749963 66.772415 31.682341 65.350016 31.614608 z M 90.546928 33.646525 C 96.710655 33.646525 101.04569 35.13679 103.55182 38.117053 C 106.12568 41.029584 107.41257 45.161234 107.41257 50.512162 C 107.41257 53.627892 106.93818 56.472661 105.98991 59.046525 C 105.10938 61.552656 103.38218 63.584412 100.80832 65.142277 C 98.302189 66.632409 94.644922 67.377799 89.83586 67.377799 L 83.028524 67.377799 L 83.028524 42.383976 C 83.028524 38.861846 83.502393 36.525017 84.450659 35.373551 C 85.398925 34.222086 87.431198 33.646525 90.546928 33.646525 z " />
    </g>
    <path
       style="fill:#eeeeee;stroke-width:0;-inkscape-stroke:none;stop-color:#000000"
       d="m 122.51629,90.085808 c 0,0 10.20381,6.782824 4.10735,9.550641 -6.09645,2.767791 -4.10735,-9.550641 -4.10735,-9.550641 z"
       id="path456" />
    <path
       style="fill:#eeeeee;stroke-width:0;-inkscape-stroke:none;stop-color:#000000"
       d="m 46.610378,23.944569 c 0,0 10.20381,6.782824 4.10735,9.550637 -6.09645,2.76779 -4.10735,-9.550637 -4.10735,-9.550637 z"
       id="path456-8" />
  </g>
</svg>
